<?xml version="1.0" encoding="UTF-8" standalone="no"?><!DOCTYPE svg PUBLIC "-//W3C//DTD SVG 1.1//EN" "http://www.w3.org/Graphics/SVG/1.1/DTD/svg11.dtd"><svg width="100%" height="100%" viewBox="0 0 23 27" version="1.1" xmlns="http://www.w3.org/2000/svg" xmlns:xlink="http://www.w3.org/1999/xlink" xml:space="preserve" xmlns:serif="http://www.serif.com/" style="fill-rule:evenodd;clip-rule:evenodd;stroke-linejoin:round;stroke-miterlimit:2;"><path d="M11.028,0c-6.091,0 -11.028,4.864 -11.028,10.864l0,4.601c0,6 4.937,10.863 11.028,10.863c6.091,0 11.028,-4.863 11.028,-10.863l0,-4.601c0,-6 -4.937,-10.864 -11.028,-10.864m1.583,13c0.845,0 1.53,0.685 1.53,1.53c0,0.845 -0.685,1.53 -1.53,1.53l-3.061,0c-0.845,0 -1.53,-0.685 -1.53,-1.53c0,-0.845 0.685,-1.53 1.53,-1.53l3.061,0Z" style="fill:#dcaa93;fill-rule:nonzero;"/></svg>