<?xml version="1.0" encoding="UTF-8" standalone="no"?><!DOCTYPE svg PUBLIC "-//W3C//DTD SVG 1.1//EN" "http://www.w3.org/Graphics/SVG/1.1/DTD/svg11.dtd"><svg width="100%" height="100%" viewBox="0 0 23 27" version="1.1" xmlns="http://www.w3.org/2000/svg" xmlns:xlink="http://www.w3.org/1999/xlink" xml:space="preserve" xmlns:serif="http://www.serif.com/" style="fill-rule:evenodd;clip-rule:evenodd;stroke-linejoin:round;stroke-miterlimit:2;"><path d="M11.306,6.678c4.712,0 4.712,4.696 4.712,4.696l0,7.327c0,1.044 -1.049,1.044 -1.049,1.044l-7.799,0c-1.047,0 -1.047,-1.044 -1.047,-1.044l0,-7.327c0,-4.696 4.712,-4.696 4.712,-4.696l0.471,0Zm-0.235,-6.678c-6.115,0 -11.071,4.881 -11.071,10.903l0,7.586c0,0 0,7.934 7.935,7.934l6.27,0c0,0 7.935,0 7.935,-7.934l0,-7.586c0,-6.022 -4.956,-10.903 -11.069,-10.903" style="fill:#dcaa93;fill-rule:nonzero;"/></svg>